<?xml version="1.0" encoding="UTF-8" standalone="no"?>
<!-- Created with Inkscape (http://www.inkscape.org/) -->
<svg
   xmlns:dc="http://purl.org/dc/elements/1.1/"
   xmlns:cc="http://web.resource.org/cc/"
   xmlns:rdf="http://www.w3.org/1999/02/22-rdf-syntax-ns#"
   xmlns:svg="http://www.w3.org/2000/svg"
   xmlns="http://www.w3.org/2000/svg"
   xmlns:sodipodi="http://sodipodi.sourceforge.net/DTD/sodipodi-0.dtd"
   xmlns:inkscape="http://www.inkscape.org/namespaces/inkscape"
   width="320"
   height="350"
   id="svg2"
   sodipodi:version="0.32"
   inkscape:version="0.45pre1"
   version="1.0"
   sodipodi:docbase="C:\Documents and Settings\Flanker\Desktop"
   sodipodi:docname="Left pointing double angle quotation mark.svg"
   inkscape:output_extension="org.inkscape.output.svg.inkscape"
   sodipodi:modified="true">
  <defs
     id="defs4" />
  <sodipodi:namedview
     id="base"
     pagecolor="#ffffff"
     bordercolor="#666666"
     borderopacity="1.0"
     inkscape:pageopacity="0.0"
     inkscape:pageshadow="2"
     inkscape:zoom="0.49497475"
     inkscape:cx="230.40355"
     inkscape:cy="215.07029"
     inkscape:document-units="px"
     inkscape:current-layer="layer1"
     inkscape:showpageshadow="false"
     width="320px"
     height="350px"
     inkscape:window-width="785"
     inkscape:window-height="576"
     inkscape:window-x="110"
     inkscape:window-y="110" />
  <metadata
     id="metadata7">
    <rdf:RDF>
      <cc:Work
         rdf:about="">
        <dc:format>image/svg+xml</dc:format>
        <dc:type
           rdf:resource="http://purl.org/dc/dcmitype/StillImage" />
      </cc:Work>
    </rdf:RDF>
  </metadata>
  <g
     inkscape:label="Livello 1"
     inkscape:groupmode="layer"
     id="layer1"
     transform="translate(-205.55528,-358.43482)">
    <path
       style="font-size:1020.3861084px;font-style:normal;font-weight:normal;fill:#ffffff;fill-opacity:1;stroke:none;stroke-width:1px;stroke-linecap:butt;stroke-linejoin:miter;stroke-opacity:1;font-family:Lello"
       d="M 298.91771,521.70121 C 301.93292,528.92633 301.93292,536.15124 298.91771,543.37599 L 235.65821,671.68741 C 238.06682,677.71743 243.18677,681.63322 251.01808,683.43482 C 268.50157,660.54675 285.97559,637.80571 303.44018,615.21164 C 320.90523,592.61778 339.28007,569.87673 358.56473,546.98845 C 366.39651,537.3554 366.39651,528.01632 358.56473,518.97118 C 339.28007,496.08326 320.90523,473.4939 303.44018,451.20299 C 285.97559,428.91263 268.50157,406.32326 251.01808,383.43482 C 243.18677,384.6485 238.06682,388.5643 235.65821,395.18222 L 298.91771,521.70121 z M 429.93158,521.70121 C 432.94667,528.92633 432.94667,536.15124 429.93158,543.37599 L 366.69967,671.68741 C 369.10815,677.71743 374.2281,681.63322 382.05954,683.43482 C 399.52452,660.54675 416.98934,637.80571 434.45406,615.21164 C 451.91899,592.61778 470.29382,569.87673 489.57861,546.98845 C 497.41025,537.3554 497.41025,528.01632 489.57861,518.97118 C 470.29382,496.08326 451.91899,473.4939 434.45406,451.20299 C 416.98934,428.91263 399.52452,406.32326 382.05954,383.43482 C 374.2281,384.6485 369.10815,388.5643 366.69967,395.18222 L 429.93158,521.70121 z "
       id="text2160" />
  </g>
</svg>
